<svg id="visual" viewBox="0 0 675 900" width="675" height="900" xmlns="http://www.w3.org/2000/svg" xmlns:xlink="http://www.w3.org/1999/xlink" version="1.1"><g stroke-width="1" stroke-linejoin="bevel"><path d="M291 436L304 408L251 423Z" fill="#061c29" stroke="#061c29"></path><path d="M304 408L232 355L251 423Z" fill="#053543" stroke="#053543"></path><path d="M291 436L359 400L304 408Z" fill="#004f5b" stroke="#004f5b"></path><path d="M304 408L326 288L232 355Z" fill="#005d65" stroke="#005d65"></path><path d="M291 436L379 415L359 400Z" fill="#006b6d" stroke="#006b6d"></path><path d="M222 524L316 513L291 436Z" fill="#02424f" stroke="#02424f"></path><path d="M291 436L316 513L379 415Z" fill="#053543" stroke="#053543"></path><path d="M148 496L222 524L251 423Z" fill="#053543" stroke="#053543"></path><path d="M251 423L222 524L291 436Z" fill="#009473" stroke="#009473"></path><path d="M418 385L376 333L359 400Z" fill="#02424f" stroke="#02424f"></path><path d="M359 400L376 333L304 408Z" fill="#061c29" stroke="#061c29"></path><path d="M340 567L344 522L316 513Z" fill="#009473" stroke="#009473"></path><path d="M316 513L344 522L379 415Z" fill="#007872" stroke="#007872"></path><path d="M326 288L217 293L232 355Z" fill="#009473" stroke="#009473"></path><path d="M232 355L153 359L251 423Z" fill="#004f5b" stroke="#004f5b"></path><path d="M376 333L326 288L304 408Z" fill="#00101c" stroke="#00101c"></path><path d="M217 293L153 359L232 355Z" fill="#00101c" stroke="#00101c"></path><path d="M421 422L418 385L379 415Z" fill="#062836" stroke="#062836"></path><path d="M379 415L418 385L359 400Z" fill="#007872" stroke="#007872"></path><path d="M344 522L421 422L379 415Z" fill="#02424f" stroke="#02424f"></path><path d="M116 445L148 496L251 423Z" fill="#006b6d" stroke="#006b6d"></path><path d="M256 594L260 566L167 565Z" fill="#004f5b" stroke="#004f5b"></path><path d="M222 524L260 566L316 513Z" fill="#008674" stroke="#008674"></path><path d="M217 293L136 338L153 359Z" fill="#00101c" stroke="#00101c"></path><path d="M153 359L116 445L251 423Z" fill="#008674" stroke="#008674"></path><path d="M380 224L311 257L326 288Z" fill="#061c29" stroke="#061c29"></path><path d="M326 288L311 257L217 293Z" fill="#061c29" stroke="#061c29"></path><path d="M95 428L116 445L153 359Z" fill="#009473" stroke="#009473"></path><path d="M260 566L340 567L316 513Z" fill="#053543" stroke="#053543"></path><path d="M344 522L454 528L421 422Z" fill="#005d65" stroke="#005d65"></path><path d="M92 335L95 428L153 359Z" fill="#007872" stroke="#007872"></path><path d="M116 445L47 527L148 496Z" fill="#053543" stroke="#053543"></path><path d="M167 565L260 566L222 524Z" fill="#02424f" stroke="#02424f"></path><path d="M260 566L256 594L340 567Z" fill="#061c29" stroke="#061c29"></path><path d="M74 580L167 565L148 496Z" fill="#006b6d" stroke="#006b6d"></path><path d="M148 496L167 565L222 524Z" fill="#00101c" stroke="#00101c"></path><path d="M418 385L412 280L376 333Z" fill="#008674" stroke="#008674"></path><path d="M376 333L412 280L326 288Z" fill="#00101c" stroke="#00101c"></path><path d="M510 307L412 280L418 385Z" fill="#009473" stroke="#009473"></path><path d="M55 284L92 335L72 246Z" fill="#006b6d" stroke="#006b6d"></path><path d="M136 338L92 335L153 359Z" fill="#007872" stroke="#007872"></path><path d="M171 214L136 338L217 293Z" fill="#009473" stroke="#009473"></path><path d="M340 567L454 528L344 522Z" fill="#009473" stroke="#009473"></path><path d="M421 422L509 398L418 385Z" fill="#008674" stroke="#008674"></path><path d="M412 280L380 224L326 288Z" fill="#008674" stroke="#008674"></path><path d="M247 189L171 214L217 293Z" fill="#007872" stroke="#007872"></path><path d="M247 189L217 293L311 257Z" fill="#00101c" stroke="#00101c"></path><path d="M371 166L247 189L311 257Z" fill="#007872" stroke="#007872"></path><path d="M521 442L509 398L421 422Z" fill="#053543" stroke="#053543"></path><path d="M412 280L452 237L380 224Z" fill="#00101c" stroke="#00101c"></path><path d="M167 565L243 644L256 594Z" fill="#006b6d" stroke="#006b6d"></path><path d="M256 594L354 672L340 567Z" fill="#053543" stroke="#053543"></path><path d="M433 626L493 558L454 528Z" fill="#005d65" stroke="#005d65"></path><path d="M247 189L198 187L171 214Z" fill="#02424f" stroke="#02424f"></path><path d="M454 528L521 442L421 422Z" fill="#053543" stroke="#053543"></path><path d="M510 307L452 237L412 280Z" fill="#009473" stroke="#009473"></path><path d="M380 224L371 166L311 257Z" fill="#053543" stroke="#053543"></path><path d="M72 246L136 338L171 214Z" fill="#007872" stroke="#007872"></path><path d="M72 246L92 335L136 338Z" fill="#007872" stroke="#007872"></path><path d="M92 335L0 421L95 428Z" fill="#006b6d" stroke="#006b6d"></path><path d="M607 373L510 307L509 398Z" fill="#009473" stroke="#009473"></path><path d="M509 398L510 307L418 385Z" fill="#02424f" stroke="#02424f"></path><path d="M0 507L47 527L95 428Z" fill="#009473" stroke="#009473"></path><path d="M95 428L47 527L116 445Z" fill="#005d65" stroke="#005d65"></path><path d="M167 565L173 667L243 644Z" fill="#005d65" stroke="#005d65"></path><path d="M433 626L454 528L340 567Z" fill="#061c29" stroke="#061c29"></path><path d="M454 528L493 558L521 442Z" fill="#062836" stroke="#062836"></path><path d="M47 527L74 580L148 496Z" fill="#061c29" stroke="#061c29"></path><path d="M90 178L72 246L171 214Z" fill="#02424f" stroke="#02424f"></path><path d="M452 172L371 166L380 224Z" fill="#007872" stroke="#007872"></path><path d="M247 189L266 144L198 187Z" fill="#006b6d" stroke="#006b6d"></path><path d="M354 672L433 626L340 567Z" fill="#02424f" stroke="#02424f"></path><path d="M371 166L266 144L247 189Z" fill="#061c29" stroke="#061c29"></path><path d="M115 145L90 178L171 214Z" fill="#004f5b" stroke="#004f5b"></path><path d="M243 644L354 672L256 594Z" fill="#009473" stroke="#009473"></path><path d="M173 667L269 686L243 644Z" fill="#02424f" stroke="#02424f"></path><path d="M243 644L269 686L354 672Z" fill="#004f5b" stroke="#004f5b"></path><path d="M76 640L173 667L167 565Z" fill="#005d65" stroke="#005d65"></path><path d="M0 336L0 421L92 335Z" fill="#006b6d" stroke="#006b6d"></path><path d="M0 286L0 336L55 284Z" fill="#008674" stroke="#008674"></path><path d="M55 284L0 336L92 335Z" fill="#004f5b" stroke="#004f5b"></path><path d="M0 421L0 507L95 428Z" fill="#007872" stroke="#007872"></path><path d="M47 527L0 598L74 580Z" fill="#005d65" stroke="#005d65"></path><path d="M493 200L452 172L452 237Z" fill="#00101c" stroke="#00101c"></path><path d="M452 237L452 172L380 224Z" fill="#00101c" stroke="#00101c"></path><path d="M305 82L243 113L266 144Z" fill="#009473" stroke="#009473"></path><path d="M115 145L171 214L198 187Z" fill="#004f5b" stroke="#004f5b"></path><path d="M0 251L0 286L55 284Z" fill="#00101c" stroke="#00101c"></path><path d="M305 82L266 144L371 166Z" fill="#006b6d" stroke="#006b6d"></path><path d="M266 144L243 113L198 187Z" fill="#062836" stroke="#062836"></path><path d="M510 307L493 200L452 237Z" fill="#008674" stroke="#008674"></path><path d="M0 598L76 640L74 580Z" fill="#062836" stroke="#062836"></path><path d="M74 580L76 640L167 565Z" fill="#061c29" stroke="#061c29"></path><path d="M0 251L55 284L72 246Z" fill="#008674" stroke="#008674"></path><path d="M150 98L115 145L198 187Z" fill="#009473" stroke="#009473"></path><path d="M90 178L0 251L72 246Z" fill="#004f5b" stroke="#004f5b"></path><path d="M0 143L0 251L90 178Z" fill="#005d65" stroke="#005d65"></path><path d="M394 42L305 82L371 166Z" fill="#061c29" stroke="#061c29"></path><path d="M243 113L150 98L198 187Z" fill="#008674" stroke="#008674"></path><path d="M521 442L607 373L509 398Z" fill="#053543" stroke="#053543"></path><path d="M604 224L523 170L493 200Z" fill="#061c29" stroke="#061c29"></path><path d="M614 466L607 373L521 442Z" fill="#008674" stroke="#008674"></path><path d="M0 507L0 598L47 527Z" fill="#00101c" stroke="#00101c"></path><path d="M167 0L150 98L243 113Z" fill="#00101c" stroke="#00101c"></path><path d="M115 145L101 108L90 178Z" fill="#062836" stroke="#062836"></path><path d="M269 686L318 749L354 672Z" fill="#053543" stroke="#053543"></path><path d="M354 672L469 701L433 626Z" fill="#061c29" stroke="#061c29"></path><path d="M203 757L318 749L269 686Z" fill="#061c29" stroke="#061c29"></path><path d="M203 757L269 686L173 667Z" fill="#006b6d" stroke="#006b6d"></path><path d="M501 679L557 605L493 558Z" fill="#009473" stroke="#009473"></path><path d="M493 558L614 466L521 442Z" fill="#009473" stroke="#009473"></path><path d="M501 679L493 558L433 626Z" fill="#005d65" stroke="#005d65"></path><path d="M627 537L614 466L493 558Z" fill="#006b6d" stroke="#006b6d"></path><path d="M557 605L569 593L493 558Z" fill="#008674" stroke="#008674"></path><path d="M493 200L523 170L452 172Z" fill="#061c29" stroke="#061c29"></path><path d="M446 58L394 42L371 166Z" fill="#008674" stroke="#008674"></path><path d="M604 224L493 200L510 307Z" fill="#006b6d" stroke="#006b6d"></path><path d="M443 762L469 701L354 672Z" fill="#061c29" stroke="#061c29"></path><path d="M557 605L612 647L569 593Z" fill="#053543" stroke="#053543"></path><path d="M49 764L155 738L76 640Z" fill="#006b6d" stroke="#006b6d"></path><path d="M76 640L155 738L173 667Z" fill="#00101c" stroke="#00101c"></path><path d="M469 701L501 679L433 626Z" fill="#007872" stroke="#007872"></path><path d="M150 98L101 108L115 145Z" fill="#053543" stroke="#053543"></path><path d="M155 738L203 757L173 667Z" fill="#007872" stroke="#007872"></path><path d="M0 598L0 644L76 640Z" fill="#008674" stroke="#008674"></path><path d="M307 864L341 772L318 749Z" fill="#009473" stroke="#009473"></path><path d="M318 749L341 772L354 672Z" fill="#008674" stroke="#008674"></path><path d="M675 321L619 283L607 373Z" fill="#00101c" stroke="#00101c"></path><path d="M607 373L619 283L510 307Z" fill="#005d65" stroke="#005d65"></path><path d="M569 593L627 537L493 558Z" fill="#007872" stroke="#007872"></path><path d="M614 466L675 384L607 373Z" fill="#061c29" stroke="#061c29"></path><path d="M675 602L627 537L569 593Z" fill="#007872" stroke="#007872"></path><path d="M619 283L604 224L510 307Z" fill="#061c29" stroke="#061c29"></path><path d="M101 108L0 143L90 178Z" fill="#005d65" stroke="#005d65"></path><path d="M341 772L443 762L354 672Z" fill="#006b6d" stroke="#006b6d"></path><path d="M469 701L508 743L501 679Z" fill="#008674" stroke="#008674"></path><path d="M501 679L612 647L557 605Z" fill="#007872" stroke="#007872"></path><path d="M446 58L371 166L452 172Z" fill="#009473" stroke="#009473"></path><path d="M305 82L260 0L243 113Z" fill="#006b6d" stroke="#006b6d"></path><path d="M150 98L80 0L101 108Z" fill="#02424f" stroke="#02424f"></path><path d="M446 58L452 172L541 94Z" fill="#02424f" stroke="#02424f"></path><path d="M541 94L452 172L523 170Z" fill="#004f5b" stroke="#004f5b"></path><path d="M675 479L675 384L614 466Z" fill="#061c29" stroke="#061c29"></path><path d="M675 202L604 183L604 224Z" fill="#007872" stroke="#007872"></path><path d="M675 202L604 224L619 283Z" fill="#007872" stroke="#007872"></path><path d="M604 224L604 183L523 170Z" fill="#009473" stroke="#009473"></path><path d="M443 762L508 743L469 701Z" fill="#004f5b" stroke="#004f5b"></path><path d="M675 555L675 479L627 537Z" fill="#062836" stroke="#062836"></path><path d="M627 537L675 479L614 466Z" fill="#008674" stroke="#008674"></path><path d="M675 384L675 321L607 373Z" fill="#005d65" stroke="#005d65"></path><path d="M565 747L612 647L501 679Z" fill="#061c29" stroke="#061c29"></path><path d="M349 0L305 82L394 42Z" fill="#005d65" stroke="#005d65"></path><path d="M349 0L266 0L305 82Z" fill="#009473" stroke="#009473"></path><path d="M101 108L0 73L0 143Z" fill="#006b6d" stroke="#006b6d"></path><path d="M266 0L260 0L305 82Z" fill="#00101c" stroke="#00101c"></path><path d="M587 95L541 94L523 170Z" fill="#007872" stroke="#007872"></path><path d="M416 0L394 42L446 58Z" fill="#009473" stroke="#009473"></path><path d="M416 0L349 0L394 42Z" fill="#007872" stroke="#007872"></path><path d="M0 644L49 764L76 640Z" fill="#005d65" stroke="#005d65"></path><path d="M142 859L202 853L203 757Z" fill="#061c29" stroke="#061c29"></path><path d="M365 847L430 817L341 772Z" fill="#007872" stroke="#007872"></path><path d="M675 602L675 555L627 537Z" fill="#009473" stroke="#009473"></path><path d="M260 0L167 0L243 113Z" fill="#00101c" stroke="#00101c"></path><path d="M341 772L430 817L443 762Z" fill="#006b6d" stroke="#006b6d"></path><path d="M443 762L496 788L508 743Z" fill="#008674" stroke="#008674"></path><path d="M508 743L565 747L501 679Z" fill="#061c29" stroke="#061c29"></path><path d="M365 847L341 772L307 864Z" fill="#053543" stroke="#053543"></path><path d="M430 817L496 788L443 762Z" fill="#061c29" stroke="#061c29"></path><path d="M534 0L416 0L446 58Z" fill="#061c29" stroke="#061c29"></path><path d="M80 0L0 73L101 108Z" fill="#053543" stroke="#053543"></path><path d="M612 647L675 602L569 593Z" fill="#061c29" stroke="#061c29"></path><path d="M675 681L675 602L612 647Z" fill="#061c29" stroke="#061c29"></path><path d="M496 788L565 747L508 743Z" fill="#02424f" stroke="#02424f"></path><path d="M307 864L318 749L203 757Z" fill="#061c29" stroke="#061c29"></path><path d="M430 817L496 900L496 788Z" fill="#00101c" stroke="#00101c"></path><path d="M604 183L587 95L523 170Z" fill="#062836" stroke="#062836"></path><path d="M541 94L534 0L446 58Z" fill="#062836" stroke="#062836"></path><path d="M675 103L587 95L604 183Z" fill="#02424f" stroke="#02424f"></path><path d="M142 859L203 757L155 738Z" fill="#061c29" stroke="#061c29"></path><path d="M675 321L675 202L619 283Z" fill="#00101c" stroke="#00101c"></path><path d="M0 644L0 768L49 764Z" fill="#005d65" stroke="#005d65"></path><path d="M49 764L142 859L155 738Z" fill="#02424f" stroke="#02424f"></path><path d="M202 853L307 864L203 757Z" fill="#008674" stroke="#008674"></path><path d="M167 0L80 0L150 98Z" fill="#062836" stroke="#062836"></path><path d="M52 833L142 859L49 764Z" fill="#008674" stroke="#008674"></path><path d="M243 900L282 900L307 864Z" fill="#004f5b" stroke="#004f5b"></path><path d="M675 202L675 168L604 183Z" fill="#062836" stroke="#062836"></path><path d="M0 768L52 833L49 764Z" fill="#006b6d" stroke="#006b6d"></path><path d="M565 747L675 681L612 647Z" fill="#009473" stroke="#009473"></path><path d="M601 0L534 0L587 95Z" fill="#008674" stroke="#008674"></path><path d="M587 95L534 0L541 94Z" fill="#006b6d" stroke="#006b6d"></path><path d="M243 900L307 864L202 853Z" fill="#00101c" stroke="#00101c"></path><path d="M307 864L394 900L365 847Z" fill="#005d65" stroke="#005d65"></path><path d="M365 847L421 900L430 817Z" fill="#007872" stroke="#007872"></path><path d="M243 900L202 853L137 900Z" fill="#053543" stroke="#053543"></path><path d="M137 900L202 853L142 859Z" fill="#02424f" stroke="#02424f"></path><path d="M80 0L0 0L0 73Z" fill="#004f5b" stroke="#004f5b"></path><path d="M282 900L394 900L307 864Z" fill="#006b6d" stroke="#006b6d"></path><path d="M496 788L583 838L565 747Z" fill="#005d65" stroke="#005d65"></path><path d="M565 747L675 756L675 681Z" fill="#008674" stroke="#008674"></path><path d="M0 768L0 833L52 833Z" fill="#061c29" stroke="#061c29"></path><path d="M102 900L137 900L142 859Z" fill="#02424f" stroke="#02424f"></path><path d="M675 168L675 103L604 183Z" fill="#062836" stroke="#062836"></path><path d="M102 900L142 859L52 833Z" fill="#062836" stroke="#062836"></path><path d="M394 900L421 900L365 847Z" fill="#062836" stroke="#062836"></path><path d="M0 900L102 900L52 833Z" fill="#061c29" stroke="#061c29"></path><path d="M496 900L583 838L496 788Z" fill="#007872" stroke="#007872"></path><path d="M675 103L601 0L587 95Z" fill="#004f5b" stroke="#004f5b"></path><path d="M583 838L675 756L565 747Z" fill="#006b6d" stroke="#006b6d"></path><path d="M421 900L496 900L430 817Z" fill="#005d65" stroke="#005d65"></path><path d="M0 833L0 900L52 833Z" fill="#004f5b" stroke="#004f5b"></path><path d="M675 103L675 0L601 0Z" fill="#006b6d" stroke="#006b6d"></path><path d="M629 900L675 825L583 838Z" fill="#02424f" stroke="#02424f"></path><path d="M583 838L675 825L675 756Z" fill="#008674" stroke="#008674"></path><path d="M496 900L629 900L583 838Z" fill="#053543" stroke="#053543"></path><path d="M629 900L675 900L675 825Z" fill="#02424f" stroke="#02424f"></path></g></svg>