<svg id="visual" viewBox="0 0 1200 900" width="1200" height="900" xmlns="http://www.w3.org/2000/svg" xmlns:xlink="http://www.w3.org/1999/xlink" version="1.1"><g stroke-width="1" stroke-linejoin="bevel"><path d="M535.3 518.3L525.3 615.9L669.7 544.3Z" fill="#005d65" stroke="#005d65"></path><path d="M525.3 615.9L665.7 666.9L669.7 544.3Z" fill="#007872" stroke="#007872"></path><path d="M535.3 518.3L401 625.9L525.3 615.9Z" fill="#02424f" stroke="#02424f"></path><path d="M525.3 615.9L554.3 787.4L665.7 666.9Z" fill="#053543" stroke="#053543"></path><path d="M433 738.4L554.3 787.4L525.3 615.9Z" fill="#004f5b" stroke="#004f5b"></path><path d="M690.7 353.7L499.3 374.7L535.3 518.3Z" fill="#004f5b" stroke="#004f5b"></path><path d="M535.3 518.3L376 501.3L401 625.9Z" fill="#061c29" stroke="#061c29"></path><path d="M554.3 787.4L630.7 797.4L665.7 666.9Z" fill="#008674" stroke="#008674"></path><path d="M499.3 374.7L376 501.3L535.3 518.3Z" fill="#006b6d" stroke="#006b6d"></path><path d="M401 625.9L433 738.4L525.3 615.9Z" fill="#004f5b" stroke="#004f5b"></path><path d="M831 649.9L669.7 544.3L665.7 666.9Z" fill="#008674" stroke="#008674"></path><path d="M831 649.9L828 542.3L669.7 544.3Z" fill="#009473" stroke="#009473"></path><path d="M669.7 544.3L690.7 353.7L535.3 518.3Z" fill="#005d65" stroke="#005d65"></path><path d="M807 370.7L690.7 353.7L669.7 544.3Z" fill="#009473" stroke="#009473"></path><path d="M786 737.4L831 649.9L665.7 666.9Z" fill="#009473" stroke="#009473"></path><path d="M630.7 797.4L786 737.4L665.7 666.9Z" fill="#008674" stroke="#008674"></path><path d="M493.3 217.1L409 362.7L499.3 374.7Z" fill="#02424f" stroke="#02424f"></path><path d="M499.3 374.7L409 362.7L376 501.3Z" fill="#00101c" stroke="#00101c"></path><path d="M376 501.3L303.7 615.9L401 625.9Z" fill="#00101c" stroke="#00101c"></path><path d="M401 625.9L303.7 615.9L433 738.4Z" fill="#053543" stroke="#053543"></path><path d="M237.7 540.3L303.7 615.9L376 501.3Z" fill="#007872" stroke="#007872"></path><path d="M828 542.3L807 370.7L669.7 544.3Z" fill="#007872" stroke="#007872"></path><path d="M554.3 787.4L640.7 900L630.7 797.4Z" fill="#007872" stroke="#007872"></path><path d="M630.7 797.4L640.7 900L786 737.4Z" fill="#007872" stroke="#007872"></path><path d="M514.3 900L640.7 900L554.3 787.4Z" fill="#004f5b" stroke="#004f5b"></path><path d="M362 900L514.3 900L433 738.4Z" fill="#053543" stroke="#053543"></path><path d="M433 738.4L514.3 900L554.3 787.4Z" fill="#061c29" stroke="#061c29"></path><path d="M788 274.1L642.7 231.1L690.7 353.7Z" fill="#006b6d" stroke="#006b6d"></path><path d="M690.7 353.7L642.7 231.1L499.3 374.7Z" fill="#00101c" stroke="#00101c"></path><path d="M831 649.9L941.3 524.3L828 542.3Z" fill="#005d65" stroke="#005d65"></path><path d="M828 542.3L922.3 394.7L807 370.7Z" fill="#004f5b" stroke="#004f5b"></path><path d="M948.3 661.9L941.3 524.3L831 649.9Z" fill="#053543" stroke="#053543"></path><path d="M921.3 264.1L788 274.1L807 370.7Z" fill="#009473" stroke="#009473"></path><path d="M807 370.7L788 274.1L690.7 353.7Z" fill="#007872" stroke="#007872"></path><path d="M280.7 381.7L237.7 540.3L376 501.3Z" fill="#009473" stroke="#009473"></path><path d="M254.7 796.4L362 900L433 738.4Z" fill="#02424f" stroke="#02424f"></path><path d="M932.3 753.4L948.3 661.9L831 649.9Z" fill="#009473" stroke="#009473"></path><path d="M932.3 753.4L831 649.9L786 737.4Z" fill="#00101c" stroke="#00101c"></path><path d="M409 362.7L280.7 381.7L376 501.3Z" fill="#00101c" stroke="#00101c"></path><path d="M409 230.1L280.7 381.7L409 362.7Z" fill="#005d65" stroke="#005d65"></path><path d="M642.7 231.1L493.3 217.1L499.3 374.7Z" fill="#062836" stroke="#062836"></path><path d="M941.3 524.3L922.3 394.7L828 542.3Z" fill="#004f5b" stroke="#004f5b"></path><path d="M834 900L932.3 753.4L786 737.4Z" fill="#004f5b" stroke="#004f5b"></path><path d="M493.3 217.1L409 230.1L409 362.7Z" fill="#00101c" stroke="#00101c"></path><path d="M254.7 796.4L433 738.4L303.7 615.9Z" fill="#007872" stroke="#007872"></path><path d="M640.7 900L834 900L786 737.4Z" fill="#008674" stroke="#008674"></path><path d="M158.3 627.9L254.7 796.4L303.7 615.9Z" fill="#006b6d" stroke="#006b6d"></path><path d="M237.7 540.3L158.3 627.9L303.7 615.9Z" fill="#008674" stroke="#008674"></path><path d="M157.3 512.3L158.3 627.9L237.7 540.3Z" fill="#053543" stroke="#053543"></path><path d="M788 274.1L669.7 140.6L642.7 231.1Z" fill="#008674" stroke="#008674"></path><path d="M642.7 231.1L552.3 112.6L493.3 217.1Z" fill="#004f5b" stroke="#004f5b"></path><path d="M493.3 217.1L415 129.6L409 230.1Z" fill="#008674" stroke="#008674"></path><path d="M801 148.6L669.7 140.6L788 274.1Z" fill="#062836" stroke="#062836"></path><path d="M148.3 385.7L157.3 512.3L280.7 381.7Z" fill="#004f5b" stroke="#004f5b"></path><path d="M280.7 381.7L157.3 512.3L237.7 540.3Z" fill="#006b6d" stroke="#006b6d"></path><path d="M1096.7 354.7L921.3 264.1L922.3 394.7Z" fill="#005d65" stroke="#005d65"></path><path d="M922.3 394.7L921.3 264.1L807 370.7Z" fill="#061c29" stroke="#061c29"></path><path d="M948.3 661.9L1044.7 495.3L941.3 524.3Z" fill="#009473" stroke="#009473"></path><path d="M941.3 524.3L1044.7 495.3L922.3 394.7Z" fill="#02424f" stroke="#02424f"></path><path d="M1091.7 653.9L1044.7 495.3L948.3 661.9Z" fill="#004f5b" stroke="#004f5b"></path><path d="M254.7 796.4L270.7 900L362 900Z" fill="#004f5b" stroke="#004f5b"></path><path d="M151.3 796.4L270.7 900L254.7 796.4Z" fill="#004f5b" stroke="#004f5b"></path><path d="M669.7 140.6L552.3 112.6L642.7 231.1Z" fill="#007872" stroke="#007872"></path><path d="M921.3 264.1L801 148.6L788 274.1Z" fill="#005d65" stroke="#005d65"></path><path d="M693.7 0L498.3 0L552.3 112.6Z" fill="#02424f" stroke="#02424f"></path><path d="M834 900L936.3 900L932.3 753.4Z" fill="#062836" stroke="#062836"></path><path d="M1060.7 784.4L1091.7 653.9L948.3 661.9Z" fill="#02424f" stroke="#02424f"></path><path d="M552.3 112.6L415 129.6L493.3 217.1Z" fill="#02424f" stroke="#02424f"></path><path d="M409 230.1L242.7 245.1L280.7 381.7Z" fill="#007872" stroke="#007872"></path><path d="M254.7 114.6L242.7 245.1L409 230.1Z" fill="#061c29" stroke="#061c29"></path><path d="M242.7 245.1L148.3 385.7L280.7 381.7Z" fill="#061c29" stroke="#061c29"></path><path d="M0 681.9L151.3 796.4L158.3 627.9Z" fill="#02424f" stroke="#02424f"></path><path d="M124.3 900L151.3 796.4L0 800.4Z" fill="#006b6d" stroke="#006b6d"></path><path d="M158.3 627.9L151.3 796.4L254.7 796.4Z" fill="#007872" stroke="#007872"></path><path d="M1060.7 784.4L948.3 661.9L932.3 753.4Z" fill="#02424f" stroke="#02424f"></path><path d="M936.3 900L1060.7 784.4L932.3 753.4Z" fill="#062836" stroke="#062836"></path><path d="M1044.7 495.3L1096.7 354.7L922.3 394.7Z" fill="#007872" stroke="#007872"></path><path d="M921.3 264.1L941.3 120.6L801 148.6Z" fill="#053543" stroke="#053543"></path><path d="M1200 416.7L1096.7 354.7L1044.7 495.3Z" fill="#004f5b" stroke="#004f5b"></path><path d="M254.7 114.6L159.3 224.1L242.7 245.1Z" fill="#004f5b" stroke="#004f5b"></path><path d="M242.7 245.1L159.3 224.1L148.3 385.7Z" fill="#007872" stroke="#007872"></path><path d="M936.3 900L1053.7 900L1060.7 784.4Z" fill="#00101c" stroke="#00101c"></path><path d="M1200 666.9L1200 504.3L1091.7 653.9Z" fill="#004f5b" stroke="#004f5b"></path><path d="M1092.7 218.1L941.3 120.6L921.3 264.1Z" fill="#008674" stroke="#008674"></path><path d="M693.7 0L552.3 112.6L669.7 140.6Z" fill="#009473" stroke="#009473"></path><path d="M426 0L254.7 114.6L415 129.6Z" fill="#007872" stroke="#007872"></path><path d="M415 129.6L254.7 114.6L409 230.1Z" fill="#062836" stroke="#062836"></path><path d="M0 502.3L158.3 627.9L157.3 512.3Z" fill="#009473" stroke="#009473"></path><path d="M151.3 796.4L124.3 900L270.7 900Z" fill="#053543" stroke="#053543"></path><path d="M552.3 112.6L498.3 0L415 129.6Z" fill="#02424f" stroke="#02424f"></path><path d="M693.7 0L669.7 140.6L801 148.6Z" fill="#061c29" stroke="#061c29"></path><path d="M804 0L693.7 0L801 148.6Z" fill="#005d65" stroke="#005d65"></path><path d="M498.3 0L426 0L415 129.6Z" fill="#053543" stroke="#053543"></path><path d="M0 345.7L0 502.3L148.3 385.7Z" fill="#006b6d" stroke="#006b6d"></path><path d="M148.3 385.7L0 502.3L157.3 512.3Z" fill="#005d65" stroke="#005d65"></path><path d="M0 502.3L0 681.9L158.3 627.9Z" fill="#004f5b" stroke="#004f5b"></path><path d="M1200 666.9L1091.7 653.9L1200 768.4Z" fill="#005d65" stroke="#005d65"></path><path d="M1091.7 653.9L1200 504.3L1044.7 495.3Z" fill="#008674" stroke="#008674"></path><path d="M1096.7 354.7L1092.7 218.1L921.3 264.1Z" fill="#02424f" stroke="#02424f"></path><path d="M941.3 120.6L804 0L801 148.6Z" fill="#005d65" stroke="#005d65"></path><path d="M1200 217.1L1092.7 218.1L1096.7 354.7Z" fill="#053543" stroke="#053543"></path><path d="M941.3 120.6L960.3 0L804 0Z" fill="#061c29" stroke="#061c29"></path><path d="M1200 768.4L1091.7 653.9L1060.7 784.4Z" fill="#02424f" stroke="#02424f"></path><path d="M1200 504.3L1200 416.7L1044.7 495.3Z" fill="#005d65" stroke="#005d65"></path><path d="M0 681.9L0 800.4L151.3 796.4Z" fill="#005d65" stroke="#005d65"></path><path d="M1200 900L1200 768.4L1060.7 784.4Z" fill="#005d65" stroke="#005d65"></path><path d="M0 295.1L0 345.7L148.3 385.7Z" fill="#009473" stroke="#009473"></path><path d="M0 295.1L148.3 385.7L159.3 224.1Z" fill="#061c29" stroke="#061c29"></path><path d="M254.7 0L157.3 108.6L254.7 114.6Z" fill="#006b6d" stroke="#006b6d"></path><path d="M254.7 114.6L157.3 108.6L159.3 224.1Z" fill="#02424f" stroke="#02424f"></path><path d="M0 89.6L0 295.1L159.3 224.1Z" fill="#053543" stroke="#053543"></path><path d="M1200 217.1L1092.7 141.6L1092.7 218.1Z" fill="#004f5b" stroke="#004f5b"></path><path d="M1092.7 218.1L1092.7 141.6L941.3 120.6Z" fill="#006b6d" stroke="#006b6d"></path><path d="M426 0L254.7 0L254.7 114.6Z" fill="#005d65" stroke="#005d65"></path><path d="M0 800.4L0 900L124.3 900Z" fill="#008674" stroke="#008674"></path><path d="M1092.7 141.6L960.3 0L941.3 120.6Z" fill="#02424f" stroke="#02424f"></path><path d="M1053.7 900L1200 900L1060.7 784.4Z" fill="#004f5b" stroke="#004f5b"></path><path d="M1200 416.7L1200 217.1L1096.7 354.7Z" fill="#004f5b" stroke="#004f5b"></path><path d="M1092.7 141.6L1100.7 0L960.3 0Z" fill="#005d65" stroke="#005d65"></path><path d="M254.7 0L129.3 0L157.3 108.6Z" fill="#061c29" stroke="#061c29"></path><path d="M157.3 108.6L0 89.6L159.3 224.1Z" fill="#006b6d" stroke="#006b6d"></path><path d="M1200 217.1L1200 136.6L1092.7 141.6Z" fill="#009473" stroke="#009473"></path><path d="M1200 136.6L1100.7 0L1092.7 141.6Z" fill="#02424f" stroke="#02424f"></path><path d="M129.3 0L0 89.6L157.3 108.6Z" fill="#006b6d" stroke="#006b6d"></path><path d="M129.3 0L0 0L0 89.6Z" fill="#053543" stroke="#053543"></path><path d="M1200 136.6L1200 0L1100.7 0Z" fill="#062836" stroke="#062836"></path></g></svg>