<svg id="visual" viewBox="0 0 540 960" width="540" height="960" xmlns="http://www.w3.org/2000/svg" xmlns:xlink="http://www.w3.org/1999/xlink" version="1.1"><g stroke-width="1" stroke-linejoin="bevel"><path d="M241 483L292 500L266 424Z" fill="#061c29" stroke="#061c29"></path><path d="M292 500L320 447L266 424Z" fill="#009473" stroke="#009473"></path><path d="M266 424L253 422L241 483Z" fill="#006b6d" stroke="#006b6d"></path><path d="M320 447L322 431L266 424Z" fill="#004f5b" stroke="#004f5b"></path><path d="M269 338L199 380L253 422Z" fill="#005d65" stroke="#005d65"></path><path d="M292 500L329 485L320 447Z" fill="#004f5b" stroke="#004f5b"></path><path d="M320 447L443 413L322 431Z" fill="#009473" stroke="#009473"></path><path d="M292 500L330 534L329 485Z" fill="#005d65" stroke="#005d65"></path><path d="M208 548L330 534L292 500Z" fill="#062836" stroke="#062836"></path><path d="M150 510L208 548L241 483Z" fill="#02424f" stroke="#02424f"></path><path d="M241 483L208 548L292 500Z" fill="#006b6d" stroke="#006b6d"></path><path d="M283 347L253 422L266 424Z" fill="#006b6d" stroke="#006b6d"></path><path d="M253 422L141 419L241 483Z" fill="#061c29" stroke="#061c29"></path><path d="M322 431L283 347L266 424Z" fill="#009473" stroke="#009473"></path><path d="M283 347L269 338L253 422Z" fill="#004f5b" stroke="#004f5b"></path><path d="M155 552L206 567L208 548Z" fill="#061c29" stroke="#061c29"></path><path d="M208 548L206 567L330 534Z" fill="#005d65" stroke="#005d65"></path><path d="M141 419L150 510L241 483Z" fill="#00101c" stroke="#00101c"></path><path d="M294 638L343 582L330 534Z" fill="#053543" stroke="#053543"></path><path d="M330 534L400 560L329 485Z" fill="#062836" stroke="#062836"></path><path d="M415 362L354 349L322 431Z" fill="#006b6d" stroke="#006b6d"></path><path d="M415 362L322 431L443 413Z" fill="#00101c" stroke="#00101c"></path><path d="M322 431L354 349L283 347Z" fill="#006b6d" stroke="#006b6d"></path><path d="M283 347L276 312L269 338Z" fill="#00101c" stroke="#00101c"></path><path d="M199 380L141 419L253 422Z" fill="#062836" stroke="#062836"></path><path d="M354 349L322 328L283 347Z" fill="#005d65" stroke="#005d65"></path><path d="M119 457L140 510L150 510Z" fill="#007872" stroke="#007872"></path><path d="M150 510L155 552L208 548Z" fill="#004f5b" stroke="#004f5b"></path><path d="M140 510L155 552L150 510Z" fill="#061c29" stroke="#061c29"></path><path d="M280 308L276 312L283 347Z" fill="#005d65" stroke="#005d65"></path><path d="M269 338L147 303L199 380Z" fill="#00101c" stroke="#00101c"></path><path d="M199 380L147 303L141 419Z" fill="#007872" stroke="#007872"></path><path d="M322 328L280 308L283 347Z" fill="#053543" stroke="#053543"></path><path d="M276 312L147 303L269 338Z" fill="#02424f" stroke="#02424f"></path><path d="M141 419L119 457L150 510Z" fill="#053543" stroke="#053543"></path><path d="M140 510L111 565L155 552Z" fill="#062836" stroke="#062836"></path><path d="M343 582L400 560L330 534Z" fill="#061c29" stroke="#061c29"></path><path d="M443 413L320 447L329 485Z" fill="#007872" stroke="#007872"></path><path d="M364 265L299 264L322 328Z" fill="#009473" stroke="#009473"></path><path d="M299 264L274 278L280 308Z" fill="#02424f" stroke="#02424f"></path><path d="M451 490L443 413L329 485Z" fill="#007872" stroke="#007872"></path><path d="M227 635L294 638L206 567Z" fill="#007872" stroke="#007872"></path><path d="M206 567L294 638L330 534Z" fill="#053543" stroke="#053543"></path><path d="M343 582L410 582L400 560Z" fill="#061c29" stroke="#061c29"></path><path d="M400 560L451 490L329 485Z" fill="#061c29" stroke="#061c29"></path><path d="M148 628L227 635L206 567Z" fill="#02424f" stroke="#02424f"></path><path d="M325 639L410 582L343 582Z" fill="#02424f" stroke="#02424f"></path><path d="M400 560L456 541L451 490Z" fill="#005d65" stroke="#005d65"></path><path d="M294 638L325 639L343 582Z" fill="#061c29" stroke="#061c29"></path><path d="M299 264L280 308L322 328Z" fill="#009473" stroke="#009473"></path><path d="M280 308L274 278L276 312Z" fill="#062836" stroke="#062836"></path><path d="M79 560L111 565L140 510Z" fill="#008674" stroke="#008674"></path><path d="M155 552L148 628L206 567Z" fill="#053543" stroke="#053543"></path><path d="M410 582L456 541L400 560Z" fill="#061c29" stroke="#061c29"></path><path d="M227 635L275 662L294 638Z" fill="#00101c" stroke="#00101c"></path><path d="M294 638L285 671L325 639Z" fill="#006b6d" stroke="#006b6d"></path><path d="M451 490L474 434L443 413Z" fill="#053543" stroke="#053543"></path><path d="M515 347L416 302L415 362Z" fill="#004f5b" stroke="#004f5b"></path><path d="M516 468L474 434L451 490Z" fill="#005d65" stroke="#005d65"></path><path d="M364 265L322 328L354 349Z" fill="#02424f" stroke="#02424f"></path><path d="M144 297L147 303L184 215Z" fill="#062836" stroke="#062836"></path><path d="M274 278L147 303L276 312Z" fill="#004f5b" stroke="#004f5b"></path><path d="M141 419L23 390L119 457Z" fill="#00101c" stroke="#00101c"></path><path d="M271 742L285 671L275 662Z" fill="#02424f" stroke="#02424f"></path><path d="M275 662L285 671L294 638Z" fill="#007872" stroke="#007872"></path><path d="M419 684L450 637L410 582Z" fill="#007872" stroke="#007872"></path><path d="M205 685L275 662L227 635Z" fill="#005d65" stroke="#005d65"></path><path d="M111 565L148 628L155 552Z" fill="#005d65" stroke="#005d65"></path><path d="M184 215L147 303L274 278Z" fill="#009473" stroke="#009473"></path><path d="M147 303L80 339L141 419Z" fill="#00101c" stroke="#00101c"></path><path d="M445 275L416 302L515 347Z" fill="#053543" stroke="#053543"></path><path d="M415 362L416 302L354 349Z" fill="#053543" stroke="#053543"></path><path d="M416 302L364 265L354 349Z" fill="#004f5b" stroke="#004f5b"></path><path d="M55 514L79 560L140 510Z" fill="#02424f" stroke="#02424f"></path><path d="M111 565L79 560L148 628Z" fill="#061c29" stroke="#061c29"></path><path d="M55 514L140 510L119 457Z" fill="#062836" stroke="#062836"></path><path d="M25 458L55 514L119 457Z" fill="#008674" stroke="#008674"></path><path d="M144 297L80 339L147 303Z" fill="#061c29" stroke="#061c29"></path><path d="M148 662L227 635L148 628Z" fill="#00101c" stroke="#00101c"></path><path d="M148 662L205 685L227 635Z" fill="#009473" stroke="#009473"></path><path d="M80 700L148 662L148 628Z" fill="#00101c" stroke="#00101c"></path><path d="M456 541L516 468L451 490Z" fill="#061c29" stroke="#061c29"></path><path d="M515 347L415 362L443 413Z" fill="#008674" stroke="#008674"></path><path d="M410 582L450 637L456 541Z" fill="#062836" stroke="#062836"></path><path d="M540 555L540 476L516 468Z" fill="#061c29" stroke="#061c29"></path><path d="M419 684L410 582L325 639Z" fill="#006b6d" stroke="#006b6d"></path><path d="M23 390L25 458L119 457Z" fill="#061c29" stroke="#061c29"></path><path d="M55 514L0 532L79 560Z" fill="#005d65" stroke="#005d65"></path><path d="M515 347L443 413L474 434Z" fill="#006b6d" stroke="#006b6d"></path><path d="M416 302L443 259L364 265Z" fill="#053543" stroke="#053543"></path><path d="M98 267L52 330L80 339Z" fill="#00101c" stroke="#00101c"></path><path d="M80 339L23 390L141 419Z" fill="#02424f" stroke="#02424f"></path><path d="M428 694L419 684L332 744Z" fill="#061c29" stroke="#061c29"></path><path d="M332 744L419 684L325 639Z" fill="#007872" stroke="#007872"></path><path d="M52 330L23 390L80 339Z" fill="#053543" stroke="#053543"></path><path d="M540 225L443 259L445 275Z" fill="#004f5b" stroke="#004f5b"></path><path d="M445 275L443 259L416 302Z" fill="#005d65" stroke="#005d65"></path><path d="M279 163L274 278L299 264Z" fill="#053543" stroke="#053543"></path><path d="M540 555L516 468L456 541Z" fill="#062836" stroke="#062836"></path><path d="M516 468L540 445L474 434Z" fill="#007872" stroke="#007872"></path><path d="M279 163L299 264L352 143Z" fill="#061c29" stroke="#061c29"></path><path d="M279 163L184 215L274 278Z" fill="#062836" stroke="#062836"></path><path d="M144 297L98 267L80 339Z" fill="#02424f" stroke="#02424f"></path><path d="M540 476L540 445L516 468Z" fill="#007872" stroke="#007872"></path><path d="M184 215L98 267L144 297Z" fill="#004f5b" stroke="#004f5b"></path><path d="M540 396L515 347L474 434Z" fill="#061c29" stroke="#061c29"></path><path d="M540 445L540 396L474 434Z" fill="#004f5b" stroke="#004f5b"></path><path d="M332 744L325 639L285 671Z" fill="#009473" stroke="#009473"></path><path d="M419 684L428 694L450 637Z" fill="#004f5b" stroke="#004f5b"></path><path d="M540 610L540 555L456 541Z" fill="#006b6d" stroke="#006b6d"></path><path d="M279 759L271 742L215 758Z" fill="#008674" stroke="#008674"></path><path d="M205 685L271 742L275 662Z" fill="#004f5b" stroke="#004f5b"></path><path d="M0 402L0 506L25 458Z" fill="#005d65" stroke="#005d65"></path><path d="M25 458L0 506L55 514Z" fill="#009473" stroke="#009473"></path><path d="M79 560L80 700L148 628Z" fill="#007872" stroke="#007872"></path><path d="M540 610L456 541L450 637Z" fill="#007872" stroke="#007872"></path><path d="M0 346L0 402L23 390Z" fill="#008674" stroke="#008674"></path><path d="M23 390L0 402L25 458Z" fill="#008674" stroke="#008674"></path><path d="M443 259L401 208L364 265Z" fill="#061c29" stroke="#061c29"></path><path d="M0 506L0 532L55 514Z" fill="#02424f" stroke="#02424f"></path><path d="M271 742L332 744L285 671Z" fill="#004f5b" stroke="#004f5b"></path><path d="M47 245L21 319L52 330Z" fill="#008674" stroke="#008674"></path><path d="M52 330L0 346L23 390Z" fill="#005d65" stroke="#005d65"></path><path d="M215 758L271 742L205 685Z" fill="#008674" stroke="#008674"></path><path d="M271 742L279 759L332 744Z" fill="#062836" stroke="#062836"></path><path d="M279 759L329 757L332 744Z" fill="#007872" stroke="#007872"></path><path d="M415 790L461 737L428 694Z" fill="#007872" stroke="#007872"></path><path d="M21 319L0 346L52 330Z" fill="#053543" stroke="#053543"></path><path d="M352 143L299 264L364 265Z" fill="#006b6d" stroke="#006b6d"></path><path d="M188 783L205 685L110 768Z" fill="#053543" stroke="#053543"></path><path d="M188 783L215 758L205 685Z" fill="#007872" stroke="#007872"></path><path d="M540 644L540 610L450 637Z" fill="#02424f" stroke="#02424f"></path><path d="M0 532L0 598L79 560Z" fill="#061c29" stroke="#061c29"></path><path d="M22 687L80 700L79 560Z" fill="#006b6d" stroke="#006b6d"></path><path d="M461 189L411 186L401 208Z" fill="#02424f" stroke="#02424f"></path><path d="M401 208L352 143L364 265Z" fill="#02424f" stroke="#02424f"></path><path d="M461 189L401 208L443 259Z" fill="#004f5b" stroke="#004f5b"></path><path d="M540 396L540 304L515 347Z" fill="#007872" stroke="#007872"></path><path d="M515 347L540 304L445 275Z" fill="#02424f" stroke="#02424f"></path><path d="M428 694L501 674L450 637Z" fill="#007872" stroke="#007872"></path><path d="M461 737L501 674L428 694Z" fill="#00101c" stroke="#00101c"></path><path d="M169 156L144 181L184 215Z" fill="#009473" stroke="#009473"></path><path d="M184 215L144 181L98 267Z" fill="#02424f" stroke="#02424f"></path><path d="M98 267L47 245L52 330Z" fill="#009473" stroke="#009473"></path><path d="M352 143L275 151L279 163Z" fill="#004f5b" stroke="#004f5b"></path><path d="M279 163L206 130L184 215Z" fill="#009473" stroke="#009473"></path><path d="M326 784L332 770L329 757Z" fill="#005d65" stroke="#005d65"></path><path d="M329 757L332 770L332 744Z" fill="#009473" stroke="#009473"></path><path d="M326 784L329 757L279 759Z" fill="#02424f" stroke="#02424f"></path><path d="M144 181L47 245L98 267Z" fill="#062836" stroke="#062836"></path><path d="M21 319L0 283L0 346Z" fill="#008674" stroke="#008674"></path><path d="M501 674L540 644L450 637Z" fill="#061c29" stroke="#061c29"></path><path d="M22 687L72 710L80 700Z" fill="#061c29" stroke="#061c29"></path><path d="M110 768L205 685L148 662Z" fill="#053543" stroke="#053543"></path><path d="M278 831L326 784L279 759Z" fill="#00101c" stroke="#00101c"></path><path d="M415 790L428 694L332 744Z" fill="#02424f" stroke="#02424f"></path><path d="M206 130L169 156L184 215Z" fill="#00101c" stroke="#00101c"></path><path d="M144 181L20 180L47 245Z" fill="#053543" stroke="#053543"></path><path d="M411 186L352 143L401 208Z" fill="#061c29" stroke="#061c29"></path><path d="M275 151L206 130L279 163Z" fill="#02424f" stroke="#02424f"></path><path d="M47 245L0 283L21 319Z" fill="#02424f" stroke="#02424f"></path><path d="M415 790L332 744L332 770Z" fill="#006b6d" stroke="#006b6d"></path><path d="M501 674L540 723L540 644Z" fill="#004f5b" stroke="#004f5b"></path><path d="M540 225L461 189L443 259Z" fill="#061c29" stroke="#061c29"></path><path d="M400 118L364 115L352 143Z" fill="#062836" stroke="#062836"></path><path d="M110 768L148 662L80 700Z" fill="#02424f" stroke="#02424f"></path><path d="M215 758L278 831L279 759Z" fill="#004f5b" stroke="#004f5b"></path><path d="M20 180L0 268L47 245Z" fill="#053543" stroke="#053543"></path><path d="M47 245L0 268L0 283Z" fill="#007872" stroke="#007872"></path><path d="M0 598L22 687L79 560Z" fill="#00101c" stroke="#00101c"></path><path d="M72 710L110 768L80 700Z" fill="#00101c" stroke="#00101c"></path><path d="M220 92L206 130L275 151Z" fill="#00101c" stroke="#00101c"></path><path d="M169 156L142 139L144 181Z" fill="#006b6d" stroke="#006b6d"></path><path d="M28 788L110 768L72 710Z" fill="#007872" stroke="#007872"></path><path d="M206 130L142 139L169 156Z" fill="#008674" stroke="#008674"></path><path d="M382 825L415 790L332 770Z" fill="#008674" stroke="#008674"></path><path d="M382 825L332 770L326 784Z" fill="#005d65" stroke="#005d65"></path><path d="M540 304L540 225L445 275Z" fill="#062836" stroke="#062836"></path><path d="M0 598L0 688L22 687Z" fill="#00101c" stroke="#00101c"></path><path d="M22 687L0 709L72 710Z" fill="#005d65" stroke="#005d65"></path><path d="M400 118L352 143L411 186Z" fill="#061c29" stroke="#061c29"></path><path d="M352 143L331 99L275 151Z" fill="#006b6d" stroke="#006b6d"></path><path d="M400 118L411 186L461 189Z" fill="#061c29" stroke="#061c29"></path><path d="M110 768L150 801L188 783Z" fill="#053543" stroke="#053543"></path><path d="M188 783L278 831L215 758Z" fill="#006b6d" stroke="#006b6d"></path><path d="M160 854L150 801L80 858Z" fill="#009473" stroke="#009473"></path><path d="M394 69L400 118L492 86Z" fill="#062836" stroke="#062836"></path><path d="M253 873L278 831L188 783Z" fill="#00101c" stroke="#00101c"></path><path d="M334 95L331 99L364 115Z" fill="#02424f" stroke="#02424f"></path><path d="M364 115L331 99L352 143Z" fill="#061c29" stroke="#061c29"></path><path d="M184 72L131 95L142 139Z" fill="#008674" stroke="#008674"></path><path d="M0 688L0 709L22 687Z" fill="#005d65" stroke="#005d65"></path><path d="M540 756L540 723L461 737Z" fill="#006b6d" stroke="#006b6d"></path><path d="M461 737L540 723L501 674Z" fill="#02424f" stroke="#02424f"></path><path d="M394 69L334 95L364 115Z" fill="#02424f" stroke="#02424f"></path><path d="M248 54L220 92L275 151Z" fill="#008674" stroke="#008674"></path><path d="M248 54L275 151L331 99Z" fill="#053543" stroke="#053543"></path><path d="M331 845L382 825L326 784Z" fill="#053543" stroke="#053543"></path><path d="M492 799L540 756L461 737Z" fill="#008674" stroke="#008674"></path><path d="M142 139L20 180L144 181Z" fill="#00101c" stroke="#00101c"></path><path d="M27 126L20 180L142 139Z" fill="#005d65" stroke="#005d65"></path><path d="M253 873L331 845L278 831Z" fill="#061c29" stroke="#061c29"></path><path d="M278 831L331 845L326 784Z" fill="#006b6d" stroke="#006b6d"></path><path d="M492 799L461 737L415 790Z" fill="#061c29" stroke="#061c29"></path><path d="M184 72L142 139L206 130Z" fill="#062836" stroke="#062836"></path><path d="M465 849L415 790L382 825Z" fill="#053543" stroke="#053543"></path><path d="M465 849L492 799L415 790Z" fill="#061c29" stroke="#061c29"></path><path d="M27 126L0 174L20 180Z" fill="#053543" stroke="#053543"></path><path d="M20 180L0 174L0 268Z" fill="#004f5b" stroke="#004f5b"></path><path d="M220 92L184 72L206 130Z" fill="#02424f" stroke="#02424f"></path><path d="M248 54L184 72L220 92Z" fill="#004f5b" stroke="#004f5b"></path><path d="M80 858L150 801L110 768Z" fill="#02424f" stroke="#02424f"></path><path d="M150 801L160 854L188 783Z" fill="#007872" stroke="#007872"></path><path d="M0 709L28 788L72 710Z" fill="#061c29" stroke="#061c29"></path><path d="M292 33L331 99L334 95Z" fill="#00101c" stroke="#00101c"></path><path d="M292 33L248 54L331 99Z" fill="#009473" stroke="#009473"></path><path d="M160 854L253 873L188 783Z" fill="#007872" stroke="#007872"></path><path d="M406 873L465 849L382 825Z" fill="#062836" stroke="#062836"></path><path d="M492 86L400 118L461 189Z" fill="#005d65" stroke="#005d65"></path><path d="M400 118L394 69L364 115Z" fill="#006b6d" stroke="#006b6d"></path><path d="M540 225L540 146L461 189Z" fill="#008674" stroke="#008674"></path><path d="M0 126L27 126L0 75Z" fill="#061c29" stroke="#061c29"></path><path d="M131 95L27 126L142 139Z" fill="#062836" stroke="#062836"></path><path d="M406 873L382 825L390 885Z" fill="#062836" stroke="#062836"></path><path d="M492 799L540 806L540 756Z" fill="#007872" stroke="#007872"></path><path d="M390 885L382 825L331 845Z" fill="#008674" stroke="#008674"></path><path d="M353 0L292 33L334 95Z" fill="#004f5b" stroke="#004f5b"></path><path d="M154 0L131 95L184 72Z" fill="#004f5b" stroke="#004f5b"></path><path d="M69 51L27 126L131 95Z" fill="#005d65" stroke="#005d65"></path><path d="M465 849L540 806L492 799Z" fill="#00101c" stroke="#00101c"></path><path d="M540 146L492 86L461 189Z" fill="#008674" stroke="#008674"></path><path d="M353 0L273 0L292 33Z" fill="#008674" stroke="#008674"></path><path d="M27 126L0 126L0 174Z" fill="#007872" stroke="#007872"></path><path d="M69 51L131 95L154 0Z" fill="#061c29" stroke="#061c29"></path><path d="M406 873L467 911L465 849Z" fill="#004f5b" stroke="#004f5b"></path><path d="M359 896L390 885L331 845Z" fill="#009473" stroke="#009473"></path><path d="M292 939L359 896L331 845Z" fill="#005d65" stroke="#005d65"></path><path d="M292 939L331 845L253 873Z" fill="#02424f" stroke="#02424f"></path><path d="M28 788L80 858L110 768Z" fill="#062836" stroke="#062836"></path><path d="M160 854L151 922L253 873Z" fill="#009473" stroke="#009473"></path><path d="M0 709L0 808L28 788Z" fill="#009473" stroke="#009473"></path><path d="M28 788L0 808L80 858Z" fill="#005d65" stroke="#005d65"></path><path d="M540 146L540 104L492 86Z" fill="#005d65" stroke="#005d65"></path><path d="M540 104L518 86L492 86Z" fill="#053543" stroke="#053543"></path><path d="M353 0L334 95L394 69Z" fill="#007872" stroke="#007872"></path><path d="M210 0L184 72L248 54Z" fill="#009473" stroke="#009473"></path><path d="M353 0L394 69L399 0Z" fill="#062836" stroke="#062836"></path><path d="M292 33L273 0L248 54Z" fill="#00101c" stroke="#00101c"></path><path d="M58 897L109 897L80 858Z" fill="#053543" stroke="#053543"></path><path d="M80 858L109 897L160 854Z" fill="#02424f" stroke="#02424f"></path><path d="M273 0L210 0L248 54Z" fill="#008674" stroke="#008674"></path><path d="M399 0L394 69L488 0Z" fill="#006b6d" stroke="#006b6d"></path><path d="M210 0L194 0L184 72Z" fill="#061c29" stroke="#061c29"></path><path d="M109 897L151 922L160 854Z" fill="#004f5b" stroke="#004f5b"></path><path d="M36 0L0 75L69 51Z" fill="#006b6d" stroke="#006b6d"></path><path d="M69 51L0 75L27 126Z" fill="#061c29" stroke="#061c29"></path><path d="M278 960L292 939L253 873Z" fill="#009473" stroke="#009473"></path><path d="M382 960L467 911L390 885Z" fill="#009473" stroke="#009473"></path><path d="M390 885L467 911L406 873Z" fill="#061c29" stroke="#061c29"></path><path d="M194 0L154 0L184 72Z" fill="#061c29" stroke="#061c29"></path><path d="M488 0L394 69L492 86Z" fill="#008674" stroke="#008674"></path><path d="M540 104L540 59L518 86Z" fill="#061c29" stroke="#061c29"></path><path d="M518 86L540 59L492 86Z" fill="#02424f" stroke="#02424f"></path><path d="M82 960L152 960L151 922Z" fill="#009473" stroke="#009473"></path><path d="M0 878L58 897L80 858Z" fill="#061c29" stroke="#061c29"></path><path d="M382 960L390 885L359 896Z" fill="#053543" stroke="#053543"></path><path d="M465 849L540 900L540 806Z" fill="#02424f" stroke="#02424f"></path><path d="M207 960L278 960L253 873Z" fill="#00101c" stroke="#00101c"></path><path d="M292 939L322 960L359 896Z" fill="#061c29" stroke="#061c29"></path><path d="M207 960L253 873L151 922Z" fill="#053543" stroke="#053543"></path><path d="M0 808L0 878L80 858Z" fill="#062836" stroke="#062836"></path><path d="M278 960L322 960L292 939Z" fill="#006b6d" stroke="#006b6d"></path><path d="M186 960L207 960L151 922Z" fill="#006b6d" stroke="#006b6d"></path><path d="M186 960L151 922L152 960Z" fill="#004f5b" stroke="#004f5b"></path><path d="M151 922L109 897L82 960Z" fill="#009473" stroke="#009473"></path><path d="M322 960L382 960L359 896Z" fill="#005d65" stroke="#005d65"></path><path d="M540 59L488 0L492 86Z" fill="#02424f" stroke="#02424f"></path><path d="M478 960L540 900L467 911Z" fill="#005d65" stroke="#005d65"></path><path d="M467 911L540 900L465 849Z" fill="#009473" stroke="#009473"></path><path d="M82 960L109 897L58 897Z" fill="#004f5b" stroke="#004f5b"></path><path d="M0 878L0 897L58 897Z" fill="#005d65" stroke="#005d65"></path><path d="M154 0L36 0L69 51Z" fill="#005d65" stroke="#005d65"></path><path d="M540 59L540 0L488 0Z" fill="#02424f" stroke="#02424f"></path><path d="M0 960L82 960L58 897Z" fill="#007872" stroke="#007872"></path><path d="M382 960L478 960L467 911Z" fill="#009473" stroke="#009473"></path><path d="M36 0L0 0L0 75Z" fill="#004f5b" stroke="#004f5b"></path><path d="M478 960L540 960L540 900Z" fill="#053543" stroke="#053543"></path><path d="M0 897L0 960L58 897Z" fill="#007872" stroke="#007872"></path></g></svg>